# xmcd CD database file
#
# Track frame offsets:
#	150
#	17009
#	33667
#	58325
#	79642
#	110499
#	125625
#	148345
#	166503
#	187903
#	210410
#	226482
#	243499
#	253614
#	270917
#	286995
#	300126
#	310389
#	324198
#	340753
#
# Disc length: 4785 seconds
#
# Revision: 0
# Processed by: cddbd v1.5.2PL0 Copyright (c) Steve Scherf et al.
# Submitted via: CDex 1.70beta1
#
DISCID=0f12af14
DTITLE=Humphrey Lyttelton Band  - Blues In The Night 
DYEAR=1900
DGENRE=Jazz
TTITLE0=Basin Street Blues
TTITLE1=Blues In The Night
TTITLE2=The Champ
TTITLE3=Blues In Thirds
TTITLE4=Things Ain't What They Used To Be
TTITLE5=Frankie and Johnny
TTITLE6=Creole Love Call
TTITLE7=Royal Garden Blues
TTITLE8=Why Don't You Do Right ?
TTITLE9=St. Louis Blues
TTITLE10=The Man I Love
TTITLE11=Bewitched
TTITLE12=That' s My Weakness Now
TTITLE13=You Brought A New Kind Of Love To Me
TTITLE14=Autumn Leaves
TTITLE15=I Who Have Nothing
TTITLE16=I Could Have Danced All Night
TTITLE17=Mood Indigo
TTITLE18=Sack O' Woe
TTITLE19=Shiny Stockings. 
EXTD=
EXTT0=
EXTT1=
EXTT2=
EXTT3=
EXTT4=
EXTT5=
EXTT6=
EXTT7=
EXTT8=
EXTT9=
EXTT10=
EXTT11=
EXTT12=
EXTT13=
EXTT14=
EXTT15=
EXTT16=
EXTT17=
EXTT18=
EXTT19=
PLAYORDER=
